<?xml version="1.0" standalone="no"?><!DOCTYPE svg PUBLIC "-//W3C//DTD SVG 1.1//EN" "http://www.w3.org/Graphics/SVG/1.1/DTD/svg11.dtd"><svg t="1636973478997" class="icon" viewBox="0 0 1024 1024" version="1.1" xmlns="http://www.w3.org/2000/svg" p-id="12760" xmlns:xlink="http://www.w3.org/1999/xlink" width="200" height="200"><defs><style type="text/css"></style></defs><path d="M634.88 268.8C580.608 256 545.792 256 512 256s-68.608 0-122.88 12.8c-148.48 35.84-323.584 163.328-323.584 243.2 0 77.312 165.888 208.384 324.096 242.688 50.688 12.288 89.088 13.312 122.88 13.312s71.68-1.024 122.88-13.312c157.696-34.304 324.096-165.376 324.096-242.688-0.512-79.872-176.128-207.36-324.608-243.2zM512 696.32c-101.888 0-184.32-82.432-184.32-184.32s82.432-184.32 184.32-184.32 184.32 82.432 184.32 184.32-82.432 184.32-184.32 184.32z" p-id="12761"></path><path d="M512 512m-122.88 0a122.88 122.88 0 1 0 245.76 0 122.88 122.88 0 1 0-245.76 0Z" p-id="12762"></path></svg>