<svg t="1636992048628" class="icon" viewBox="0 0 1024 1024" version="1.1" xmlns="http://www.w3.org/2000/svg" p-id="12908" width="200" height="200"><path d="M928 528c-12.8 0-22.4-6.4-28.8-19.2-60.8-121.6-214.4-204.8-387.2-204.8-169.6 0-326.4 83.2-387.2 204.8-6.4 16-25.6 22.4-41.6 12.8-16-6.4-22.4-25.6-12.8-41.6C140.8 336 313.6 240 512 240c198.4 0 371.2 96 444.8 240 6.4 16 0 35.2-16 41.6-3.2 6.4-9.6 6.4-12.8 6.4z" fill="#707070" p-id="12909"></path><path d="M512 752c-198.4 0-374.4-96-444.8-243.2-6.4-16 0-35.2 16-41.6 16-6.4 35.2 0 41.6 16 60.8 124.8 214.4 204.8 387.2 204.8 172.8 0 326.4-83.2 387.2-204.8 6.4-16 25.6-22.4 41.6-16 16 6.4 22.4 25.6 16 41.6-70.4 150.4-246.4 243.2-444.8 243.2z" fill="#707070" p-id="12910"></path><path d="M512 636.8c-76.8 0-140.8-64-140.8-140.8s64-140.8 140.8-140.8 140.8 64 140.8 140.8-64 140.8-140.8 140.8z m0-224c-44.8 0-83.2 38.4-83.2 83.2 0 44.8 38.4 83.2 83.2 83.2 44.8 0 83.2-38.4 83.2-83.2 0-44.8-38.4-83.2-83.2-83.2z" fill="#707070" p-id="12911"></path></svg>